<svg id="kity_svg_6" xmlns="http://www.w3.org/2000/svg" xmlns:xlink="http://www.w3.org/1999/xlink" version="1.1" width="692" height="592" style="background: rgb(251, 251, 251); visibility: visible;" viewBox="0 0 692 592"><defs id="kity_defs_7"><linearGradient id="kity_linearGradient_17" x1="0" y1="0" x2="0" y2="1"><stop id="kity_stop_18" offset="0" stop-color="rgb(255, 255, 255)"></stop><stop id="kity_stop_19" offset="1" stop-color="rgb(204, 204, 204)"></stop></linearGradient><marker id="kity_marker_2" orient="auto" refX="6" refY="0" viewBox="-7 -7 14 14" markerWidth="7" markerHeight="7" markerUnits="userSpaceOnUse"><path id="kity_path_3" fill="rgb(115, 191, 118)" stroke="none" d="M6,0A6,6,0,1,1,-6,0A6,6,0,1,1,6,0"></path></marker></defs><g id="kity_g_8"><g id="minder1" text-rendering="optimize-speed"><g id="minder_connect_group1"><path id="kity_path_31" fill="none" stroke="rgb(115, 191, 118)" stroke-width="1" d="M76.5,361.5A174,148,0,0,1,250.5,213.5"></path><path id="kity_path_39" fill="none" stroke="rgb(115, 191, 118)" stroke-width="1" d="M76.5,361.5A174,148,0,0,0,250.5,509.5"></path><path id="kity_path_47" fill="none" stroke="rgb(115, 191, 118)" stroke-width="1" d="M432.5,213.5C452.5,213.5,452.5,57.5,472.5,57.5"></path><path id="kity_path_79" fill="none" stroke="rgb(115, 191, 118)" stroke-width="1" d="M540.5,57.5C560.5,57.5,560.5,31.5,580.5,31.5"></path><path id="kity_path_87" fill="none" stroke="rgb(115, 191, 118)" stroke-width="1" d="M540.5,57.5C560.5,57.5,560.5,83.5,580.5,83.5"></path><path id="kity_path_95" fill="none" stroke="rgb(115, 191, 118)" stroke-width="1" d="M432.5,213.5C452.5,213.5,452.5,161.5,472.5,161.5"></path><path id="kity_path_118" fill="none" stroke="rgb(115, 191, 118)" stroke-width="1" d="M540.5,161.5C560.5,161.5,560.5,135.5,580.5,135.5"></path><path id="kity_path_119" fill="none" stroke="rgb(115, 191, 118)" stroke-width="1" d="M540.5,161.5C560.5,161.5,560.5,187.5,580.5,187.5"></path><path id="kity_path_121" fill="none" stroke="rgb(115, 191, 118)" stroke-width="1" d="M432.5,213.5C452.5,213.5,452.5,265.5,472.5,265.5"></path><path id="kity_path_123" fill="none" stroke="rgb(115, 191, 118)" stroke-width="1" d="M540.5,265.5C560.5,265.5,560.5,239.5,580.5,239.5"></path><path id="kity_path_125" fill="none" stroke="rgb(115, 191, 118)" stroke-width="1" d="M540.5,265.5C560.5,265.5,560.5,291.5,580.5,291.5"></path><path id="kity_path_145" fill="none" stroke="rgb(115, 191, 118)" stroke-width="1" d="M432.5,213.5C452.5,213.5,452.5,369.5,472.5,369.5"></path><path id="kity_path_147" fill="none" stroke="rgb(115, 191, 118)" stroke-width="1" d="M540.5,369.5C560.5,369.5,560.5,343.5,580.5,343.5"></path><path id="kity_path_149" fill="none" stroke="rgb(115, 191, 118)" stroke-width="1" d="M540.5,369.5C560.5,369.5,560.5,395.5,580.5,395.5"></path><path id="kity_path_169" fill="none" stroke="rgb(115, 191, 118)" stroke-width="1" d="M418.5,509.5C438.5,509.5,438.5,457.5,458.5,457.5"></path><path id="kity_path_171" fill="none" stroke="rgb(115, 191, 118)" stroke-width="1" d="M418.5,509.5C438.5,509.5,438.5,509.5,458.5,509.5"></path><path id="kity_path_193" fill="none" stroke="rgb(115, 191, 118)" stroke-width="1" d="M418.5,509.5C438.5,509.5,438.5,561.5,458.5,561.5"></path></g><g id="minder_node1"><path id="kity_path_202" fill="rgba(0, 0, 0, .25)" stroke="none" d="M60.5,319.5h72a47,47,0,0,1,47,47v0a47,47,0,0,1,-47,47h-72a47,47,0,0,1,-47,-47v0a47,47,0,0,1,47,-47z" display="none"></path><path id="node_outline1" fill="rgb(115, 191, 118)" stroke="rgb(115, 191, 118)" d="M25.5,341.5h102a5,5,0,0,1,5,5v30a5,5,0,0,1,-5,5h-102a5,5,0,0,1,-5,-5v-30a5,5,0,0,1,5,-5z" stroke-width="3"></path><g id="node_text1" fill="white"><text id="kity_text_22" text-rendering="inherit" font-size="16" dy=".8em" y="353.5" font-family="微软雅黑,Microsoft YaHei" font-weight="bold" x="44.5">排序算法</text></g></g><g id="kity_g_14" display="none"><path id="kity_path_15" fill="rgba(0, 92, 153, 0.5)" stroke="none" d="M458.5,493.5h68v15h-68z"></path><path id="kity_path_16" fill="none" stroke="rgb(0, 76, 128)" d="M458.5,493.5L526.5,493.5" stroke-width="1"></path></g><g id="minder_node2"><path id="kity_path_200" fill="rgba(0, 0, 0, .25)" stroke="none" d="M261.5,204.5h190a5,5,0,0,1,5,5v18a5,5,0,0,1,-5,5h-190a5,5,0,0,1,-5,-5v-18a5,5,0,0,1,5,-5z" display="none"></path><g id="node_expander1" style="cursor: pointer;"><path id="kity_path_36" fill="white" stroke="gray" d="M251.5,213.5A6,6,0,1,1,239.5,213.5A6,6,0,1,1,251.5,213.5"></path><path id="kity_path_37" fill="none" stroke="gray" d="M241,213.5L250,213.5"></path></g><path id="node_outline2" fill="rgb(238, 246, 238)" stroke="rgb(115, 191, 118)" d="M255.5,200.5h174a3,3,0,0,1,3,3v20a3,3,0,0,1,-3,3h-174a3,3,0,0,1,-3,-3v-20a3,3,0,0,1,3,-3z" stroke-width="1"></path><g id="node_text2" fill="black"><text id="kity_text_33" text-rendering="inherit" font-size="14" dy=".8em" y="206.5" font-family="微软雅黑,Microsoft YaHei" font-weight="bold" x="272.5">非线性时间比较类排序</text></g></g><g id="minder_node3"><path id="kity_path_201" fill="rgba(0, 0, 0, .25)" stroke="none" d="M261.5,500.5h174a5,5,0,0,1,5,5v18a5,5,0,0,1,-5,5h-174a5,5,0,0,1,-5,-5v-18a5,5,0,0,1,5,-5z" display="none"></path><g id="node_expander2" style="cursor: pointer;"><path id="kity_path_44" fill="white" stroke="gray" d="M251.5,509.5A6,6,0,1,1,239.5,509.5A6,6,0,1,1,251.5,509.5"></path><path id="kity_path_45" fill="none" stroke="gray" d="M241,509.5L250,509.5"></path></g><path id="node_outline3" fill="rgb(238, 246, 238)" stroke="rgb(115, 191, 118)" d="M255.5,496.5h160a3,3,0,0,1,3,3v20a3,3,0,0,1,-3,3h-160a3,3,0,0,1,-3,-3v-20a3,3,0,0,1,3,-3z" stroke-width="1"></path><g id="node_text3" fill="black"><text id="kity_text_41" text-rendering="inherit" font-size="14" dy=".8em" y="502.5" font-family="微软雅黑,Microsoft YaHei" font-weight="bold" x="272.5">线性时间比较类排序</text></g></g><g id="minder_node4"><path id="kity_path_205" fill="rgba(0, 0, 0, .25)" stroke="none" d="M512.5,30h0a33,33,0,0,1,33,33v0a33,33,0,0,1,-33,33h0a33,33,0,0,1,-33,-33v0a33,33,0,0,1,33,-33z" display="none"></path><g id="node_expander3" style="cursor: pointer;"><path id="kity_path_52" fill="white" stroke="gray" d="M472.5,57.5A6,6,0,1,1,460.5,57.5A6,6,0,1,1,472.5,57.5"></path><path id="kity_path_53" fill="none" stroke="gray" d="M462,57.5L471,57.5"></path></g><path id="node_outline4" fill="none" stroke="none" d="M477.5,46.5h58a5,5,0,0,1,5,5v12a5,5,0,0,1,-5,5h-58a5,5,0,0,1,-5,-5v-12a5,5,0,0,1,5,-5z" stroke-width="3"></path><g id="node_text4" fill="black"><text id="kity_text_49" text-rendering="inherit" font-size="12" dy=".8em" y="51.5" font-family="微软雅黑,Microsoft YaHei" font-weight="bold" x="482.5">交换排序</text></g></g><g id="minder_node8"><path id="kity_path_203" fill="rgba(0, 0, 0, .25)" stroke="none" d="M620.5,4h0a33,33,0,0,1,33,33v0a33,33,0,0,1,-33,33h0a33,33,0,0,1,-33,-33v0a33,33,0,0,1,33,-33z" display="none"></path><g id="node_expander7" style="cursor: pointer;" display="none"><path id="kity_path_84" fill="white" stroke="gray" d="M580.5,31.5A6,6,0,1,1,568.5,31.5A6,6,0,1,1,580.5,31.5"></path><path id="kity_path_85" fill="none" stroke="gray"></path></g><path id="node_outline8" fill="none" stroke="none" d="M585.5,20.5h58a5,5,0,0,1,5,5v12a5,5,0,0,1,-5,5h-58a5,5,0,0,1,-5,-5v-12a5,5,0,0,1,5,-5z" stroke-width="3"></path><g id="node_text8" fill="black"><text id="kity_text_81" text-rendering="inherit" font-size="12" dy=".8em" y="25.5" font-family="微软雅黑,Microsoft YaHei" font-weight="bold" x="590.5">冒泡排序</text></g></g><g id="minder_node9"><path id="kity_path_204" fill="rgba(0, 0, 0, .25)" stroke="none" d="M620.5,56h0a33,33,0,0,1,33,33v0a33,33,0,0,1,-33,33h0a33,33,0,0,1,-33,-33v0a33,33,0,0,1,33,-33z" display="none"></path><g id="node_expander8" style="cursor: pointer;" display="none"><path id="kity_path_92" fill="white" stroke="gray" d="M580.5,83.5A6,6,0,1,1,568.5,83.5A6,6,0,1,1,580.5,83.5"></path><path id="kity_path_93" fill="none" stroke="gray"></path></g><path id="node_outline9" fill="none" stroke="none" d="M585.5,72.5h58a5,5,0,0,1,5,5v12a5,5,0,0,1,-5,5h-58a5,5,0,0,1,-5,-5v-12a5,5,0,0,1,5,-5z" stroke-width="3"></path><g id="node_text9" fill="black"><text id="kity_text_89" text-rendering="inherit" font-size="12" dy=".8em" y="77.5" font-family="微软雅黑,Microsoft YaHei" font-weight="bold" x="590.5">快速排序</text></g></g><g id="minder_node10" opacity="1"><path id="kity_path_208" fill="rgba(0, 0, 0, .25)" stroke="none" d="M512.5,134h0a33,33,0,0,1,33,33v0a33,33,0,0,1,-33,33h0a33,33,0,0,1,-33,-33v0a33,33,0,0,1,33,-33z" display="none"></path><g id="node_expander9" style="cursor: pointer;"><path id="kity_path_104" fill="white" stroke="gray" d="M472.5,161.5A6,6,0,1,1,460.5,161.5A6,6,0,1,1,472.5,161.5"></path><path id="kity_path_105" fill="none" stroke="gray" d="M462,161.5L471,161.5"></path></g><path id="node_outline10" fill="none" stroke="none" d="M477.5,150.5h58a5,5,0,0,1,5,5v12a5,5,0,0,1,-5,5h-58a5,5,0,0,1,-5,-5v-12a5,5,0,0,1,5,-5z" stroke-width="3"></path><g id="node_text10" fill="black"><text id="kity_text_101" text-rendering="inherit" font-size="12" dy=".8em" y="155.5" font-family="微软雅黑,Microsoft YaHei" font-weight="bold" x="482.5">插入排序</text></g></g><g id="minder_node11"><path id="kity_path_206" fill="rgba(0, 0, 0, .25)" stroke="none" d="M633.5,96h0a45,45,0,0,1,45,45v0a45,45,0,0,1,-45,45h0a45,45,0,0,1,-45,-45v0a45,45,0,0,1,45,-45z" display="none"></path><g id="node_expander10" style="cursor: pointer;" display="none"><path id="kity_path_113" fill="white" stroke="gray" d="M580.5,135.5A6,6,0,1,1,568.5,135.5A6,6,0,1,1,580.5,135.5"></path><path id="kity_path_114" fill="none" stroke="gray"></path></g><path id="node_outline11" fill="none" stroke="none" d="M585.5,124.5h82a5,5,0,0,1,5,5v12a5,5,0,0,1,-5,5h-82a5,5,0,0,1,-5,-5v-12a5,5,0,0,1,5,-5z" stroke-width="3"></path><g id="node_text11" fill="black"><text id="kity_text_107" text-rendering="inherit" font-size="12" dy=".8em" y="129.5" font-family="微软雅黑,Microsoft YaHei" font-weight="bold" x="590.5">简单插入排序</text></g></g><g id="minder_node12"><path id="kity_path_207" fill="rgba(0, 0, 0, .25)" stroke="none" d="M620.5,160h0a33,33,0,0,1,33,33v0a33,33,0,0,1,-33,33h0a33,33,0,0,1,-33,-33v0a33,33,0,0,1,33,-33z" display="none"></path><g id="node_expander11" style="cursor: pointer;" display="none"><path id="kity_path_116" fill="white" stroke="gray" d="M580.5,187.5A6,6,0,1,1,568.5,187.5A6,6,0,1,1,580.5,187.5"></path><path id="kity_path_117" fill="none" stroke="gray"></path></g><path id="node_outline12" fill="none" stroke="none" d="M585.5,176.5h58a5,5,0,0,1,5,5v12a5,5,0,0,1,-5,5h-58a5,5,0,0,1,-5,-5v-12a5,5,0,0,1,5,-5z" stroke-width="3"></path><g id="node_text12" fill="black"><text id="kity_text_109" text-rendering="inherit" font-size="12" dy=".8em" y="181.5" font-family="微软雅黑,Microsoft YaHei" font-weight="bold" x="590.5">希尔排序</text></g></g><g id="minder_node13"><path id="kity_path_211" fill="rgba(0, 0, 0, .25)" stroke="none" d="M512.5,238h0a33,33,0,0,1,33,33v0a33,33,0,0,1,-33,33h0a33,33,0,0,1,-33,-33v0a33,33,0,0,1,33,-33z" display="none"></path><g id="node_expander12" style="cursor: pointer;"><path id="kity_path_130" fill="white" stroke="gray" d="M472.5,265.5A6,6,0,1,1,460.5,265.5A6,6,0,1,1,472.5,265.5"></path><path id="kity_path_131" fill="none" stroke="gray" d="M462,265.5L471,265.5"></path></g><path id="node_outline13" fill="none" stroke="none" d="M477.5,254.5h58a5,5,0,0,1,5,5v12a5,5,0,0,1,-5,5h-58a5,5,0,0,1,-5,-5v-12a5,5,0,0,1,5,-5z" stroke-width="3"></path><g id="node_text13" fill="black"><text id="kity_text_127" text-rendering="inherit" font-size="12" dy=".8em" y="259.5" font-family="微软雅黑,Microsoft YaHei" font-weight="bold" x="482.5">选择排序</text></g></g><g id="minder_node14"><path id="kity_path_209" fill="rgba(0, 0, 0, .25)" stroke="none" d="M633.5,200h0a45,45,0,0,1,45,45v0a45,45,0,0,1,-45,45h0a45,45,0,0,1,-45,-45v0a45,45,0,0,1,45,-45z" display="none"></path><g id="node_expander13" style="cursor: pointer;" display="none"><path id="kity_path_139" fill="white" stroke="gray" d="M580.5,239.5A6,6,0,1,1,568.5,239.5A6,6,0,1,1,580.5,239.5"></path><path id="kity_path_140" fill="none" stroke="gray"></path></g><path id="node_outline14" fill="none" stroke="none" d="M585.5,228.5h82a5,5,0,0,1,5,5v12a5,5,0,0,1,-5,5h-82a5,5,0,0,1,-5,-5v-12a5,5,0,0,1,5,-5z" stroke-width="3"></path><g id="node_text14" fill="black"><text id="kity_text_133" text-rendering="inherit" font-size="12" dy=".8em" y="233.5" font-family="微软雅黑,Microsoft YaHei" font-weight="bold" x="590.5">简单选择排序</text></g></g><g id="minder_node15"><path id="kity_path_210" fill="rgba(0, 0, 0, .25)" stroke="none" d="M614,270h0a27,27,0,0,1,27,27v0a27,27,0,0,1,-27,27h0a27,27,0,0,1,-27,-27v0a27,27,0,0,1,27,-27z" display="none"></path><g id="node_expander14" style="cursor: pointer;" display="none"><path id="kity_path_142" fill="white" stroke="gray" d="M580.5,291.5A6,6,0,1,1,568.5,291.5A6,6,0,1,1,580.5,291.5"></path><path id="kity_path_143" fill="none" stroke="gray"></path></g><path id="node_outline15" fill="none" stroke="none" d="M585.5,280.5h46a5,5,0,0,1,5,5v12a5,5,0,0,1,-5,5h-46a5,5,0,0,1,-5,-5v-12a5,5,0,0,1,5,-5z" stroke-width="3"></path><g id="node_text15" fill="black"><text id="kity_text_135" text-rendering="inherit" font-size="12" dy=".8em" y="285.5" font-family="微软雅黑,Microsoft YaHei" font-weight="bold" x="590.5">堆排序</text></g></g><g id="minder_node16"><path id="kity_path_214" fill="rgba(0, 0, 0, .25)" stroke="none" d="M512.5,342h0a33,33,0,0,1,33,33v0a33,33,0,0,1,-33,33h0a33,33,0,0,1,-33,-33v0a33,33,0,0,1,33,-33z" display="none"></path><g id="node_expander15" style="cursor: pointer;"><path id="kity_path_154" fill="white" stroke="gray" d="M472.5,369.5A6,6,0,1,1,460.5,369.5A6,6,0,1,1,472.5,369.5"></path><path id="kity_path_155" fill="none" stroke="gray" d="M462,369.5L471,369.5"></path></g><path id="node_outline16" fill="none" stroke="none" d="M477.5,358.5h58a5,5,0,0,1,5,5v12a5,5,0,0,1,-5,5h-58a5,5,0,0,1,-5,-5v-12a5,5,0,0,1,5,-5z" stroke-width="3"></path><g id="node_text16" fill="black"><text id="kity_text_151" text-rendering="inherit" font-size="12" dy=".8em" y="363.5" font-family="微软雅黑,Microsoft YaHei" font-weight="bold" x="482.5">归并排序</text></g></g><g id="minder_node17"><path id="kity_path_212" fill="rgba(0, 0, 0, .25)" stroke="none" d="M633.5,304h0a45,45,0,0,1,45,45v0a45,45,0,0,1,-45,45h0a45,45,0,0,1,-45,-45v0a45,45,0,0,1,45,-45z" display="none"></path><g id="node_expander16" style="cursor: pointer;" display="none"><path id="kity_path_163" fill="white" stroke="gray" d="M580.5,343.5A6,6,0,1,1,568.5,343.5A6,6,0,1,1,580.5,343.5"></path><path id="kity_path_164" fill="none" stroke="gray"></path></g><path id="node_outline17" fill="none" stroke="none" d="M585.5,332.5h82a5,5,0,0,1,5,5v12a5,5,0,0,1,-5,5h-82a5,5,0,0,1,-5,-5v-12a5,5,0,0,1,5,-5z" stroke-width="3"></path><g id="node_text17" fill="black"><text id="kity_text_157" text-rendering="inherit" font-size="12" dy=".8em" y="337.5" font-family="微软雅黑,Microsoft YaHei" font-weight="bold" x="590.5">二路归并排序</text></g></g><g id="minder_node18"><path id="kity_path_213" fill="rgba(0, 0, 0, .25)" stroke="none" d="M633.5,356h0a45,45,0,0,1,45,45v0a45,45,0,0,1,-45,45h0a45,45,0,0,1,-45,-45v0a45,45,0,0,1,45,-45z" display="none"></path><g id="node_expander17" style="cursor: pointer;" display="none"><path id="kity_path_166" fill="white" stroke="gray" d="M580.5,395.5A6,6,0,1,1,568.5,395.5A6,6,0,1,1,580.5,395.5"></path><path id="kity_path_167" fill="none" stroke="gray"></path></g><path id="node_outline18" fill="none" stroke="none" d="M585.5,384.5h82a5,5,0,0,1,5,5v12a5,5,0,0,1,-5,5h-82a5,5,0,0,1,-5,-5v-12a5,5,0,0,1,5,-5z" stroke-width="3"></path><g id="node_text18" fill="black"><text id="kity_text_159" text-rendering="inherit" font-size="12" dy=".8em" y="389.5" font-family="微软雅黑,Microsoft YaHei" font-weight="bold" x="590.5">多路归并排序</text></g></g><g id="minder_node19"><path id="kity_path_215" fill="rgba(0, 0, 0, .25)" stroke="none" d="M498.5,430h0a33,33,0,0,1,33,33v0a33,33,0,0,1,-33,33h0a33,33,0,0,1,-33,-33v0a33,33,0,0,1,33,-33z" display="none"></path><g id="node_expander18" style="cursor: pointer;" display="none"><path id="kity_path_178" fill="white" stroke="gray" d="M458.5,457.5A6,6,0,1,1,446.5,457.5A6,6,0,1,1,458.5,457.5"></path><path id="kity_path_179" fill="none" stroke="gray" d="M448,457.5L457,457.5"></path></g><path id="node_outline19" fill="none" stroke="none" d="M463.5,446.5h58a5,5,0,0,1,5,5v12a5,5,0,0,1,-5,5h-58a5,5,0,0,1,-5,-5v-12a5,5,0,0,1,5,-5z" stroke-width="3"></path><g id="node_text19" fill="black"><text id="kity_text_175" text-rendering="inherit" font-size="12" dy=".8em" y="451.5" font-family="微软雅黑,Microsoft YaHei" font-weight="bold" x="468.5">计数排序</text></g></g><g id="minder_node20" opacity="1"><path id="kity_path_216" fill="rgba(0, 0, 0, .25)" stroke="none" d="M492,488h0a27,27,0,0,1,27,27v0a27,27,0,0,1,-27,27h0a27,27,0,0,1,-27,-27v0a27,27,0,0,1,27,-27z" display="none"></path><g id="node_expander19" style="cursor: pointer;" display="none"><path id="kity_path_187" fill="white" stroke="gray" d="M458.5,509.5A6,6,0,1,1,446.5,509.5A6,6,0,1,1,458.5,509.5"></path><path id="kity_path_188" fill="none" stroke="gray"></path></g><path id="node_outline20" fill="none" stroke="none" d="M463.5,498.5h46a5,5,0,0,1,5,5v12a5,5,0,0,1,-5,5h-46a5,5,0,0,1,-5,-5v-12a5,5,0,0,1,5,-5z" stroke-width="3"></path><g id="node_text20" fill="black"><text id="kity_text_181" text-rendering="inherit" font-size="12" dy=".8em" y="503.5" font-family="微软雅黑,Microsoft YaHei" font-weight="bold" x="468.5">桶排序</text></g></g><g id="minder_node22" opacity="1"><path id="kity_path_217" fill="rgba(0, 0, 0, .25)" stroke="none" d="M498.5,534h0a33,33,0,0,1,33,33v0a33,33,0,0,1,-33,33h0a33,33,0,0,1,-33,-33v0a33,33,0,0,1,33,-33z" display="none"></path><g id="node_expander21" style="cursor: pointer;" display="none"><path id="kity_path_198" fill="white" stroke="gray" d="M458.5,561.5A6,6,0,1,1,446.5,561.5A6,6,0,1,1,458.5,561.5"></path><path id="kity_path_199" fill="none" stroke="gray"></path></g><path id="node_outline22" fill="none" stroke="none" d="M463.5,550.5h58a5,5,0,0,1,5,5v12a5,5,0,0,1,-5,5h-58a5,5,0,0,1,-5,-5v-12a5,5,0,0,1,5,-5z" stroke-width="3"></path><g id="node_text22" fill="black"><text id="kity_text_195" text-rendering="inherit" font-size="12" dy=".8em" y="555.5" font-family="微软雅黑,Microsoft YaHei" font-weight="bold" x="468.5">基数排序</text></g></g><g id="kity_g_12" display="none"><path id="kity_path_13" fill="none" stroke="rgb(66, 94, 112)" d="M255.5,503.5h160a3,3,0,0,1,3,3v20a3,3,0,0,1,-3,3h-160a3,3,0,0,1,-3,-3v-20a3,3,0,0,1,3,-3z" stroke-width="5"></path></g></g></g></svg>